HIERARCHY
ROOT Hips
{
  OFFSET 13.6774 106.653 -34.4427
  CHANNELS 6 Xposition Yposition Zposition Zrotation Xrotation Yrotation
  JOINT ToSpine
  {
    OFFSET -2.69724 7.43032 -0.144315
    CHANNELS 3 Zrotation Xrotation Yrotation
    JOINT Spine
    {
      OFFSET -0.0310711 10.7595 1.96963
      CHANNELS 3 Zrotation Xrotation Yrotation
      JOINT Spine1
      {
        OFFSET 19.9056 3.91189 0.764692
        CHANNELS 3 Zrotation Xrotation Yrotation
        JOINT Neck
        {
          OFFSET 25.9749 7.03908 -0.130764
          CHANNELS 3 Zrotation Xrotation Yrotation
          JOINT Head
          {
            OFFSET 9.52751 0.295786 -0.907742
            CHANNELS 3 Zrotation Xrotation Yrotation
            End Site
            {
              OFFSET 16.4037 0.713936 2.7358
            }
          }
        }
        JOINT LeftShoulder
        {
          OFFSET 17.7449 4.33886 11.7777
          CHANNELS 3 Zrotation Xrotation Yrotation
          JOINT LeftArm
          {
            OFFSET 0.911315 1.27913 9.80584
            CHANNELS 3 Zrotation Xrotation Yrotation
            JOINT LeftForeArm
            {
              OFFSET 28.6126 1.18197 -3.53199
              CHANNELS 3 Zrotation Xrotation Yrotation
              JOINT LeftHand
              {
                OFFSET 27.5088 0.0218783 0.327423
                CHANNELS 3 Zrotation Xrotation Yrotation
                End Site
                {
                  OFFSET 18.6038 -0.000155887 0.382096
                }
              }
            }
          }
        }
        JOINT RightShoulder
        {
          OFFSET 17.1009 2.89543 -12.2328
          CHANNELS 3 Zrotation Xrotation Yrotation
          JOINT RightArm
          {
            OFFSET 1.4228 0.178766 -10.211
            CHANNELS 3 Zrotation Xrotation Yrotation
            JOINT RightForeArm
            {
              OFFSET 28.733 1.87905 2.64907
              CHANNELS 3 Zrotation Xrotation Yrotation
              JOINT RightHand
              {
                OFFSET 27.4588 0.290562 -0.101845
                CHANNELS 3 Zrotation Xrotation Yrotation
                End Site
                {
                  OFFSET 17.8396 -0.255518 -0.000602873
                }
              }
            }
          }
        }
      }
    }
  }
  JOINT LeftUpLeg
  {
    OFFSET -5.61296 -2.22332 -10.2353
    CHANNELS 3 Zrotation Xrotation Yrotation
    JOINT LeftLeg
    {
      OFFSET 2.56703 -44.7417 -7.93097
      CHANNELS 3 Zrotation Xrotation Yrotation
      JOINT LeftFoot
      {
        OFFSET 3.16933 -46.5642 -3.96578
        CHANNELS 3 Zrotation Xrotation Yrotation
        JOINT LeftToeBase
        {
          OFFSET 0.346054 -6.02161 12.8035
          CHANNELS 3 Zrotation Xrotation Yrotation
          End Site
          {
            OFFSET 0.134235 -1.35082 5.13018
          }
        }
      }
    }
  }
  JOINT RightUpLeg
  {
    OFFSET -5.7928 -1.72406 10.6446
    CHANNELS 3 Zrotation Xrotation Yrotation
    JOINT RightLeg
    {
      OFFSET -2.57161 -44.7178 -7.85259
      CHANNELS 3 Zrotation Xrotation Yrotation
      JOINT RightFoot
      {
        OFFSET -3.10148 -46.5936 -4.03391
        CHANNELS 3 Zrotation Xrotation Yrotation
        JOINT RightToeBase
        {
          OFFSET -0.0828122 -6.13587 12.8035
          CHANNELS 3 Zrotation Xrotation Yrotation
          End Site
          {
            OFFSET -0.131328 -1.35082 5.13018
          }
        }
      }
    }
  }
}
MOTION
Frames: 8
Frame Time: 0.03333333333333333
0.0000 93.1000 0.0000 -61.0663 -11.5960 123.8955 -70.8938 -0.6026 87.6968 113.5176 64.8593 -26.6457 -9.8251 21.5012 -9.4793 -154.8923 3.7128 -142.8859 -151.2794 40.8766 -175.7505 -0.1514 -14.1906 -37.9793 -120.1011 7.0453 -56.0617 -5.8863 -7.7218 -36.7923 0.8117 -1.1159 -3.2306 -1.9681 7.3677 27.0240 -55.2109 -27.4414 96.8840 -19.2114 -9.8093 114.1265 -0.8396 0.6686 -0.7162 -21.9115 35.9410 69.2729 -59.8133 82.7197 27.2537 -4.5254 -18.3307 -0.8451 16.8889 -31.4816 14.8281 -9.0042 -36.9756 119.2995 -4.2938 32.7658 -7.3785 -7.9989 -12.2317 0.3857 2.0832 0.1991 -18.2047 
0.0000 93.1000 0.0000 -61.9340 -11.9295 126.8633 -71.0891 -1.6053 88.0531 120.8430 63.8594 -33.0370 -10.2893 22.2657 -10.6711 -153.9734 4.9013 -144.1019 -149.0659 41.0773 -177.5679 -0.9782 -14.4796 -38.2607 -121.3311 6.2093 -58.2591 -6.2610 -7.1620 -39.8965 0.3336 -0.4327 -2.3158 -2.5342 8.4597 26.1411 -55.4409 -24.6893 104.8993 -16.8298 -7.4544 112.8388 -0.6603 -0.0376 -0.3732 -11.8133 34.2515 71.7426 -145.8469 77.5763 112.4385 -3.7248 -17.0944 -0.8866 17.6061 -31.2568 15.9706 -9.9335 -36.9661 112.0883 -2.9841 34.0926 -4.3613 -8.4072 -11.8989 -0.5382 0.9866 -0.8437 -17.1975 
0.0000 93.1000 0.0000 -62.0849 -12.1599 129.5693 -71.1837 -1.4192 88.1552 122.6771 65.0955 -36.0036 -11.2528 22.9492 -9.4504 -152.9885 5.7515 -145.1781 -149.2874 42.1589 -176.7440 -1.1008 -14.9568 -39.1204 -122.2223 5.6956 -59.2555 -5.9581 -6.3663 -43.6566 -0.1525 -0.5643 -2.8583 -2.6533 8.4931 25.9071 -55.2079 -22.1185 112.0752 -10.6740 -4.4128 110.7758 -0.8029 0.0777 -0.3863 -4.1228 32.0883 80.4021 -160.3159 69.6521 125.2131 -3.7021 -14.7493 -0.8755 18.9581 -32.2699 20.7517 -11.0087 -37.1518 107.2637 -2.1333 34.0161 -3.2008 -8.7721 -12.0336 -0.0371 1.5055 -1.8883 -17.7857 
0.0000 93.1000 0.0000 -61.1593 -11.8034 133.4780 -71.0961 -0.5838 88.0702 123.6793 65.8602 -35.1648 -10.2756 24.3048 -10.5701 -153.0352 6.0913 -145.6227 -151.3073 41.9106 -176.5390 -0.7643 -15.2694 -39.7612 -123.1495 5.0359 -59.0592 -6.0431 -5.7892 -47.8306 -0.2554 -0.5611 -2.7496 -2.1736 8.8327 25.0072 -54.9602 -19.7016 120.2172 -4.9265 -2.2037 107.2593 -0.3747 0.1972 0.2631 -0.0303 28.9249 91.1898 -162.0344 65.5864 124.1085 -4.1684 -12.6822 -1.1185 20.5244 -34.1659 24.6396 -14.1713 -36.9914 99.3071 -1.3693 34.0424 0.0644 -8.9504 -12.2122 0.7503 3.1660 -3.8560 -21.4310 
0.0000 93.1000 0.0000 -61.1066 -10.2181 139.0332 -70.9067 -0.5102 87.7518 128.9113 65.1699 -37.5169 -10.1877 24.8999 -12.2687 -152.2114 6.7831 -146.0363 -151.5242 41.9569 -175.7991 -0.7216 -14.8536 -39.8096 -123.9721 4.8154 -58.0940 -6.0293 -4.8930 -53.7710 0.2622 -0.5012 -1.8030 -2.2246 9.4561 23.9540 -54.4191 -17.9947 127.0520 -1.6878 -0.8552 103.8618 -0.1233 0.2033 -0.0495 -0.0424 26.0450 101.1930 -160.8921 67.5424 119.6104 -5.3912 -9.9721 -0.4047 20.5151 -33.9607 23.2551 -20.2904 -35.9420 90.3922 -0.4236 31.5253 0.7713 -9.9275 -12.0577 0.5120 3.3652 -6.7632 -22.9497 
0.0000 93.1000 0.0000 -63.0171 -8.9326 142.5950 -70.7526 0.3465 87.6681 133.9044 64.8801 -40.7058 -10.0047 25.6439 -12.1440 -150.0933 6.8493 -147.1547 -150.2515 42.0573 -174.6762 0.0629 -14.0796 -39.0194 -125.1791 5.5985 -56.0964 -5.1167 -2.1160 -61.8987 0.6419 -0.8321 -1.1223 -1.8507 10.4524 23.7714 -54.1819 -16.6984 132.2343 0.6308 0.2091 101.7480 -0.1600 0.6453 -0.3566 -4.9096 22.1863 109.4434 -152.0132 74.9855 109.4759 -9.5939 -5.8337 0.7691 18.9524 -32.2339 18.7301 -26.1336 -33.2835 84.1149 0.8097 32.6912 -0.1343 -9.3921 -13.2392 0.8852 2.7518 -4.9518 -23.3393 
0.0000 93.1000 0.0000 -64.1301 -7.4784 147.7811 -70.9111 0.7663 87.8831 135.8536 64.4938 -41.4388 -10.1479 26.5057 -11.3552 -148.9439 6.6494 -148.4529 -148.9252 42.6503 -175.3564 0.1567 -12.4397 -37.8695 -124.8959 6.3075 -54.7717 -1.3811 -1.4256 -69.7492 1.1317 -0.0725 -0.7049 -0.8063 10.3448 24.0542 -54.1312 -16.4424 134.9112 3.6728 0.3933 103.3489 0.2401 -0.2163 -0.0361 -9.4162 18.6334 115.0173 -106.9024 82.8877 62.0704 -15.2218 0.7054 1.0388 17.0333 -31.0747 14.7032 -30.4625 -28.5829 80.7517 0.4715 35.3635 -2.3484 -9.4616 -15.4168 2.0120 3.7696 -2.9196 -23.2743 
0.0000 93.1000 0.0000 -64.7481 -7.7908 153.0129 -71.1582 0.4596 88.2275 134.1774 66.2072 -38.3303 -8.8392 27.1427 -10.9643 -146.9686 6.9052 -151.1458 -149.3701 41.7501 -175.3956 0.0197 -13.0933 -35.8847 -124.5151 6.0988 -55.0696 1.9198 -0.2754 -75.3661 1.3932 0.1332 1.1829 -0.9385 10.7726 22.7209 -55.3977 -17.0647 138.0329 4.7495 1.1966 103.1924 -0.4401 -0.2777 -0.1587 -15.8673 12.7136 115.3977 -26.1205 76.6196 -21.7059 -18.8967 4.4339 2.5762 13.8187 -28.1098 11.7588 -33.8163 -22.9854 77.4106 0.4102 35.8701 -5.0684 -8.2340 -16.8236 1.3822 2.7806 -2.2169 -21.9750 
